# xmcd
#
# Track frame offsets:
#	182
#	10920
#	24607
#	35590
#	45537
#	58105
#	68620
#	81010
#	90975
#	102997
#	115692
#	126892
#	139672
#	150727
#
# Disc length: 2160 seconds
#
# Revision: 1
# Processed by: cddbd v1.5.2PL0 Copyright (c) Steve Scherf et al.
# Submitted via: audiograbber 1.83.01
#
DISCID=ac086e0e
DTITLE=Diversen - The spirit of Country
DYEAR=1900
DGENRE=
TTITLE0=Jimmie Rodgers - Kisses sweeter than wine
TTITLE1=Patsy Cline - Life's railway to heaven
TTITLE2=Dolly Parton - Honky tonk angels
TTITLE3=Johnny Cash - Born to loose
TTITLE4=Gene Autry - Goodnight Irene
TTITLE5=Jim Nesbitt - Running bare
TTITLE6=Tommy Cash - Six white horses
TTITLE7=Dave Duddley - Six days on the road
TTITLE8=Johnny Tillotson - Talk back trembling lips
TTITLE9=Bobby Helms - Fraulein
TTITLE10=Willis Brothers - Give me 40 acres
TTITLE11=Charlie rich - I take it on home
TTITLE12=Donna Fargo - All that's keeping me alive
TTITLE13=Skeeter Davis - Crying time
EXTD=
EXTT0=
EXTT1=
EXTT2=
EXTT3=
EXTT4=
EXTT5=
EXTT6=
EXTT7=
EXTT8=
EXTT9=
EXTT10=
EXTT11=
EXTT12=
EXTT13=
PLAYORDER=
